<svg width="86" height="26" viewBox="0 0 86 26" fill="none" xmlns="http://www.w3.org/2000/svg">
<rect x="0.25" y="0.25" width="85.5" height="25.5" rx="4.75" fill="white"/>
<rect x="0.25" y="0.25" width="85.5" height="25.5" rx="4.75" stroke="#FA4D4D" stroke-width="0.5"/>
<path d="M7.49994 15.1375C6.99994 15.475 6.39994 15.25 6.09994 14.8C5.79994 14.35 5.99994 13.5625 6.49994 13.225L11.4999 9.85002C11.7999 9.62502 12.1999 9.62502 12.4999 9.85002L17.4999 13.225C17.9999 13.5625 18.0999 14.2375 17.7999 14.8C17.4999 15.3625 16.8999 15.475 16.3999 15.1375L11.9999 12.1L7.49994 15.1375Z" fill="#FA4D4D"/>
<path d="M27.468 7.916C28.3 7.916 28.968 8.136 29.472 8.576C29.976 9.016 30.228 9.612 30.228 10.364V13.976C30.228 15.016 29.984 15.812 29.496 16.364C29.016 16.916 28.332 17.192 27.444 17.192C26.524 17.192 25.816 16.908 25.32 16.34C24.824 15.772 24.576 14.964 24.576 13.916C24.576 13.316 24.676 12.768 24.876 12.272C25.076 11.776 25.368 11.384 25.752 11.096C26.136 10.8 26.584 10.652 27.096 10.652C27.696 10.652 28.228 10.884 28.692 11.348V10.316C28.692 9.46 28.284 9.032 27.468 9.032C27.1 9.032 26.816 9.108 26.616 9.26C26.416 9.412 26.316 9.608 26.316 9.848L26.328 9.968L24.864 10.124C24.832 10.028 24.816 9.932 24.816 9.836C24.816 9.46 24.928 9.128 25.152 8.84C25.384 8.544 25.7 8.316 26.1 8.156C26.5 7.996 26.956 7.916 27.468 7.916ZM27.444 16.028C27.868 16.028 28.18 15.86 28.38 15.524C28.588 15.18 28.692 14.656 28.692 13.952V12.5C28.508 12.276 28.316 12.104 28.116 11.984C27.916 11.864 27.684 11.804 27.42 11.804C27.036 11.804 26.736 11.984 26.52 12.344C26.304 12.704 26.196 13.228 26.196 13.916C26.196 14.668 26.3 15.208 26.508 15.536C26.716 15.864 27.028 16.028 27.444 16.028ZM34.6472 10.652C34.6552 10.924 34.7272 11.176 34.8632 11.408C35.0072 11.64 35.2232 11.924 35.5112 12.26C35.7592 12.564 35.9592 12.828 36.1112 13.052C36.2632 13.268 36.3912 13.524 36.4952 13.82C36.6072 14.108 36.6632 14.428 36.6632 14.78C36.6632 15.26 36.5472 15.684 36.3152 16.052C36.0832 16.412 35.7632 16.692 35.3552 16.892C34.9472 17.092 34.4792 17.192 33.9512 17.192C33.3912 17.192 32.9112 17.088 32.5112 16.88C32.1112 16.664 31.8072 16.376 31.5992 16.016C31.3912 15.656 31.2872 15.26 31.2872 14.828C31.2872 14.348 31.3992 13.904 31.6232 13.496L32.9552 13.844C32.8592 14.132 32.8112 14.456 32.8112 14.816C32.8112 15.184 32.9112 15.48 33.1112 15.704C33.3112 15.92 33.5912 16.028 33.9512 16.028C34.3272 16.028 34.6072 15.916 34.7912 15.692C34.9752 15.46 35.0672 15.16 35.0672 14.792C35.0672 14.448 34.9952 14.152 34.8512 13.904C34.7072 13.648 34.4832 13.34 34.1792 12.98C33.9392 12.7 33.7512 12.464 33.6152 12.272C33.4792 12.08 33.3592 11.848 33.2552 11.576C33.1592 11.304 33.1112 10.996 33.1112 10.652H34.6472ZM44.0476 15.872C44.2876 15.088 44.4076 14.3 44.4076 13.508C44.4076 12.26 44.0716 11.636 43.3996 11.636C42.8556 11.636 42.5836 12.016 42.5836 12.776V14.864L41.1436 15.032V12.776C41.1436 12.344 41.0756 12.048 40.9396 11.888C40.8036 11.72 40.6076 11.636 40.3516 11.636C39.9996 11.636 39.7396 11.8 39.5716 12.128C39.4036 12.456 39.3196 12.968 39.3196 13.664C39.3196 14.552 39.5276 15.256 39.9436 15.776C40.3596 16.288 40.9316 16.688 41.6596 16.976C42.3316 17.248 42.8836 17.516 43.3156 17.78C43.7476 18.044 44.1236 18.396 44.4436 18.836L43.3996 19.64C43.1516 19.264 42.8156 18.948 42.3916 18.692C41.9756 18.436 41.5196 18.308 41.0236 18.308C40.3356 18.308 39.6516 18.508 38.9716 18.908L38.5756 17.72C39.0796 17.52 39.6396 17.42 40.2556 17.42C39.7596 17.188 39.3316 16.92 38.9716 16.616C38.6116 16.312 38.3196 15.908 38.0956 15.404C37.8716 14.9 37.7596 14.276 37.7596 13.532C37.7596 12.5 37.9716 11.732 38.3956 11.228C38.8276 10.724 39.3996 10.472 40.1116 10.472C40.5996 10.472 40.9876 10.588 41.2756 10.82C41.5636 11.052 41.7596 11.408 41.8636 11.888C42.0636 10.944 42.6476 10.472 43.6156 10.472C44.3196 10.472 44.8876 10.724 45.3196 11.228C45.7516 11.732 45.9676 12.488 45.9676 13.496C45.9676 14.52 45.7676 15.444 45.3676 16.268L44.0476 15.872ZM50.3269 10.652C50.3349 10.924 50.4069 11.176 50.5429 11.408C50.6869 11.64 50.9029 11.924 51.1909 12.26C51.4389 12.564 51.6389 12.828 51.7909 13.052C51.9429 13.268 52.0709 13.524 52.1749 13.82C52.2869 14.108 52.3429 14.428 52.3429 14.78C52.3429 15.26 52.2269 15.684 51.9949 16.052C51.7629 16.412 51.4429 16.692 51.0349 16.892C50.6269 17.092 50.1589 17.192 49.6309 17.192C49.0709 17.192 48.5909 17.088 48.1909 16.88C47.7909 16.664 47.4869 16.376 47.2789 16.016C47.0709 15.656 46.9669 15.26 46.9669 14.828C46.9669 14.348 47.0789 13.904 47.3029 13.496L48.6349 13.844C48.5389 14.132 48.4909 14.456 48.4909 14.816C48.4909 15.184 48.5909 15.48 48.7909 15.704C48.9909 15.92 49.2709 16.028 49.6309 16.028C50.0069 16.028 50.2869 15.916 50.4709 15.692C50.6549 15.46 50.7469 15.16 50.7469 14.792C50.7469 14.448 50.6749 14.152 50.5309 13.904C50.3869 13.648 50.1629 13.34 49.8589 12.98C49.6189 12.7 49.4309 12.464 49.2949 12.272C49.1589 12.08 49.0389 11.848 48.9349 11.576C48.8389 11.304 48.7909 10.996 48.7909 10.652H50.3269ZM62.2953 10.472C62.7433 10.472 63.1433 10.58 63.4953 10.796C63.8473 11.004 64.1233 11.32 64.3233 11.744C64.5313 12.16 64.6353 12.676 64.6353 13.292C64.6353 13.916 64.5873 14.468 64.4913 14.948C64.3953 15.42 64.2513 15.86 64.0593 16.268L62.7153 15.872C62.8433 15.48 62.9353 15.088 62.9913 14.696C63.0473 14.304 63.0753 13.856 63.0753 13.352C63.0753 12.736 62.9833 12.296 62.7993 12.032C62.6233 11.768 62.3953 11.636 62.1153 11.636C61.8673 11.636 61.6673 11.724 61.5153 11.9C61.3713 12.076 61.2993 12.34 61.2993 12.692V14.888L59.8593 15.032V12.692C59.8593 12.332 59.7873 12.068 59.6433 11.9C59.4993 11.724 59.2993 11.636 59.0433 11.636C58.7873 11.636 58.5833 11.724 58.4313 11.9C58.2873 12.068 58.2153 12.332 58.2153 12.692V14.864L56.7753 15.032V12.692C56.7753 12.34 56.7033 12.076 56.5593 11.9C56.4153 11.724 56.2153 11.636 55.9593 11.636C55.3193 11.636 54.9993 12.268 54.9993 13.532C54.9993 14.236 55.1513 14.808 55.4553 15.248C55.7673 15.688 56.1433 16.024 56.5833 16.256C57.0313 16.48 57.5793 16.696 58.2273 16.904C58.9953 17.144 59.6593 17.404 60.2193 17.684C60.7873 17.972 61.2433 18.348 61.5873 18.812L60.6153 19.64C60.2153 19.184 59.7753 18.84 59.2953 18.608C58.8233 18.384 58.2913 18.272 57.6993 18.272C57.2593 18.272 56.8553 18.332 56.4873 18.452C56.1273 18.58 55.7513 18.76 55.3593 18.992L54.9753 17.804C55.5113 17.548 56.1193 17.42 56.7993 17.42C55.8153 17.196 55.0073 16.76 54.3753 16.112C53.7513 15.456 53.4393 14.572 53.4393 13.46C53.4393 12.46 53.6473 11.712 54.0633 11.216C54.4873 10.72 55.0473 10.472 55.7433 10.472C56.6793 10.472 57.2593 10.92 57.4833 11.816C57.5633 11.368 57.7353 11.032 57.9993 10.808C58.2713 10.584 58.6153 10.472 59.0313 10.472C59.8873 10.472 60.4113 10.92 60.6033 11.816C60.6913 11.376 60.8793 11.044 61.1673 10.82C61.4633 10.588 61.8393 10.472 62.2953 10.472ZM65.8026 13.556C65.8026 12.612 66.0546 11.864 66.5586 11.312C67.0626 10.752 67.7466 10.472 68.6106 10.472C69.4826 10.472 70.1666 10.744 70.6626 11.288C71.1586 11.832 71.4066 12.588 71.4066 13.556C71.4066 14.692 71.1626 15.84 70.6746 17H69.1866C69.4026 16.376 69.5666 15.788 69.6786 15.236C69.7906 14.676 69.8466 14.116 69.8466 13.556C69.8466 12.276 69.4346 11.636 68.6106 11.636C68.2106 11.636 67.9026 11.792 67.6866 12.104C67.4706 12.416 67.3626 12.9 67.3626 13.556C67.3626 14.116 67.4186 14.672 67.5306 15.224C67.6506 15.776 67.8186 16.368 68.0346 17H66.5466C66.3226 16.464 66.1426 15.916 66.0066 15.356C65.8706 14.796 65.8026 14.196 65.8026 13.556Z" fill="#FA4D4D"/>
</svg>
