<svg width="86" height="26" viewBox="0 0 86 26" fill="none" xmlns="http://www.w3.org/2000/svg">
<rect x="0.25" y="0.25" width="85.5" height="25.5" rx="4.75" fill="white"/>
<rect x="0.25" y="0.25" width="85.5" height="25.5" rx="4.75" stroke="#08A508" stroke-width="0.5"/>
<path d="M16.4999 10.8625C16.9999 10.525 17.5999 10.75 17.8999 11.3125C18.1999 11.875 17.9999 12.55 17.5999 12.775L12.5999 16.15C12.2999 16.375 11.8999 16.375 11.5999 16.15L6.59995 12.775C5.99995 12.55 5.89995 11.7625 6.19995 11.3125C6.39995 10.75 7.09995 10.525 7.49995 10.8625L11.9999 13.9L16.4999 10.8625Z" fill="#08A508"/>
<path d="M30.744 16.808C30.176 16.808 29.684 16.676 29.268 16.412C28.86 16.148 28.548 15.78 28.332 15.308C28.116 14.836 28.008 14.296 28.008 13.688C28.008 13.064 28.104 12.524 28.296 12.068C27.992 11.772 27.66 11.624 27.3 11.624C26.964 11.624 26.684 11.776 26.46 12.08C26.244 12.384 26.136 12.912 26.136 13.664C26.136 14.552 26.344 15.256 26.76 15.776C27.176 16.288 27.748 16.688 28.476 16.976C29.148 17.248 29.7 17.516 30.132 17.78C30.564 18.044 30.94 18.396 31.26 18.836L30.216 19.64C29.968 19.264 29.632 18.948 29.208 18.692C28.792 18.436 28.336 18.308 27.84 18.308C27.152 18.308 26.468 18.508 25.788 18.908L25.392 17.72C25.896 17.52 26.456 17.42 27.072 17.42C26.576 17.188 26.148 16.92 25.788 16.616C25.428 16.312 25.136 15.908 24.912 15.404C24.688 14.9 24.576 14.276 24.576 13.532C24.576 12.86 24.684 12.296 24.9 11.84C25.124 11.376 25.42 11.032 25.788 10.808C26.164 10.584 26.58 10.472 27.036 10.472C27.7 10.472 28.292 10.724 28.812 11.228C29.292 10.724 29.932 10.472 30.732 10.472C31.596 10.472 32.268 10.764 32.748 11.348C33.228 11.932 33.468 12.708 33.468 13.676C33.468 14.636 33.228 15.4 32.748 15.968C32.268 16.528 31.6 16.808 30.744 16.808ZM30.732 11.612C29.956 11.612 29.568 12.3 29.568 13.676C29.568 14.332 29.668 14.828 29.868 15.164C30.068 15.5 30.36 15.668 30.744 15.668C31.128 15.668 31.416 15.504 31.608 15.176C31.808 14.84 31.908 14.34 31.908 13.676C31.908 12.3 31.516 11.612 30.732 11.612ZM37.8347 10.652C37.8427 10.924 37.9147 11.176 38.0507 11.408C38.1947 11.64 38.4107 11.924 38.6987 12.26C38.9467 12.564 39.1467 12.828 39.2987 13.052C39.4507 13.268 39.5787 13.524 39.6827 13.82C39.7947 14.108 39.8507 14.428 39.8507 14.78C39.8507 15.26 39.7347 15.684 39.5027 16.052C39.2707 16.412 38.9507 16.692 38.5427 16.892C38.1347 17.092 37.6667 17.192 37.1387 17.192C36.5787 17.192 36.0987 17.088 35.6987 16.88C35.2987 16.664 34.9947 16.376 34.7867 16.016C34.5787 15.656 34.4747 15.26 34.4747 14.828C34.4747 14.348 34.5867 13.904 34.8107 13.496L36.1427 13.844C36.0467 14.132 35.9987 14.456 35.9987 14.816C35.9987 15.184 36.0987 15.48 36.2987 15.704C36.4987 15.92 36.7787 16.028 37.1387 16.028C37.5147 16.028 37.7947 15.916 37.9787 15.692C38.1627 15.46 38.2547 15.16 38.2547 14.792C38.2547 14.448 38.1827 14.152 38.0387 13.904C37.8947 13.648 37.6707 13.34 37.3667 12.98C37.1267 12.7 36.9387 12.464 36.8027 12.272C36.6667 12.08 36.5467 11.848 36.4427 11.576C36.3467 11.304 36.2987 10.996 36.2987 10.652H37.8347ZM44.6671 10.544C45.3631 10.696 45.9031 11.056 46.2871 11.624C46.6711 12.192 46.8631 12.924 46.8631 13.82C46.8631 14.492 46.7431 15.084 46.5031 15.596C46.2711 16.1 45.9271 16.492 45.4711 16.772C45.0231 17.044 44.4911 17.18 43.8751 17.18C42.9391 17.18 42.2071 16.884 41.6791 16.292C41.1511 15.692 40.8871 14.868 40.8871 13.82C40.8871 12.932 41.0951 12.192 41.5111 11.6C41.9351 11.008 42.5231 10.648 43.2751 10.52C43.3071 10.424 43.3231 10.28 43.3231 10.088C43.3231 9.944 43.2871 9.824 43.2151 9.728C43.1511 9.624 43.0471 9.5 42.9031 9.356C42.7031 9.164 42.5511 8.98 42.4471 8.804C42.3431 8.628 42.2911 8.396 42.2911 8.108L43.7671 7.952C43.7751 8.136 43.8191 8.292 43.8991 8.42C43.9791 8.548 44.0991 8.692 44.2591 8.852C44.4431 9.052 44.5791 9.228 44.6671 9.38C44.7551 9.532 44.7991 9.724 44.7991 9.956C44.7991 10.14 44.7551 10.336 44.6671 10.544ZM43.8751 16.016C44.3311 16.016 44.6711 15.836 44.8951 15.476C45.1271 15.116 45.2431 14.564 45.2431 13.82C45.2431 13.06 45.1271 12.504 44.8951 12.152C44.6711 11.792 44.3351 11.612 43.8871 11.612C42.9671 11.612 42.5071 12.348 42.5071 13.82C42.5071 14.572 42.6191 15.128 42.8431 15.488C43.0751 15.84 43.4191 16.016 43.8751 16.016ZM51.1589 10.652C51.1669 10.924 51.2389 11.176 51.3749 11.408C51.5189 11.64 51.7349 11.924 52.0229 12.26C52.2709 12.564 52.4709 12.828 52.6229 13.052C52.7749 13.268 52.9029 13.524 53.0069 13.82C53.1189 14.108 53.1749 14.428 53.1749 14.78C53.1749 15.26 53.0589 15.684 52.8269 16.052C52.5949 16.412 52.2749 16.692 51.8669 16.892C51.4589 17.092 50.9909 17.192 50.4629 17.192C49.9029 17.192 49.4229 17.088 49.0229 16.88C48.6229 16.664 48.3189 16.376 48.1109 16.016C47.9029 15.656 47.7989 15.26 47.7989 14.828C47.7989 14.348 47.9109 13.904 48.1349 13.496L49.4669 13.844C49.3709 14.132 49.3229 14.456 49.3229 14.816C49.3229 15.184 49.4229 15.48 49.6229 15.704C49.8229 15.92 50.1029 16.028 50.4629 16.028C50.8389 16.028 51.1189 15.916 51.3029 15.692C51.4869 15.46 51.5789 15.16 51.5789 14.792C51.5789 14.448 51.5069 14.152 51.3629 13.904C51.2189 13.648 50.9949 13.34 50.6909 12.98C50.4509 12.7 50.2629 12.464 50.1269 12.272C49.9909 12.08 49.8709 11.848 49.7669 11.576C49.6709 11.304 49.6229 10.996 49.6229 10.652H51.1589ZM63.1273 10.472C63.5753 10.472 63.9753 10.58 64.3273 10.796C64.6793 11.004 64.9553 11.32 65.1553 11.744C65.3633 12.16 65.4673 12.676 65.4673 13.292C65.4673 13.916 65.4193 14.468 65.3233 14.948C65.2273 15.42 65.0833 15.86 64.8913 16.268L63.5473 15.872C63.6753 15.48 63.7673 15.088 63.8233 14.696C63.8793 14.304 63.9073 13.856 63.9073 13.352C63.9073 12.736 63.8153 12.296 63.6313 12.032C63.4553 11.768 63.2273 11.636 62.9473 11.636C62.6993 11.636 62.4993 11.724 62.3473 11.9C62.2033 12.076 62.1313 12.34 62.1313 12.692V14.888L60.6913 15.032V12.692C60.6913 12.332 60.6193 12.068 60.4753 11.9C60.3313 11.724 60.1313 11.636 59.8753 11.636C59.6193 11.636 59.4153 11.724 59.2633 11.9C59.1193 12.068 59.0473 12.332 59.0473 12.692V14.864L57.6073 15.032V12.692C57.6073 12.34 57.5353 12.076 57.3913 11.9C57.2473 11.724 57.0473 11.636 56.7913 11.636C56.1513 11.636 55.8313 12.268 55.8313 13.532C55.8313 14.236 55.9833 14.808 56.2873 15.248C56.5993 15.688 56.9753 16.024 57.4153 16.256C57.8633 16.48 58.4113 16.696 59.0593 16.904C59.8273 17.144 60.4913 17.404 61.0513 17.684C61.6193 17.972 62.0753 18.348 62.4193 18.812L61.4473 19.64C61.0473 19.184 60.6073 18.84 60.1273 18.608C59.6553 18.384 59.1233 18.272 58.5313 18.272C58.0913 18.272 57.6873 18.332 57.3193 18.452C56.9593 18.58 56.5833 18.76 56.1913 18.992L55.8073 17.804C56.3433 17.548 56.9513 17.42 57.6313 17.42C56.6473 17.196 55.8393 16.76 55.2073 16.112C54.5833 15.456 54.2713 14.572 54.2713 13.46C54.2713 12.46 54.4793 11.712 54.8953 11.216C55.3193 10.72 55.8793 10.472 56.5753 10.472C57.5113 10.472 58.0913 10.92 58.3153 11.816C58.3953 11.368 58.5673 11.032 58.8313 10.808C59.1033 10.584 59.4473 10.472 59.8633 10.472C60.7193 10.472 61.2433 10.92 61.4353 11.816C61.5233 11.376 61.7113 11.044 61.9993 10.82C62.2953 10.588 62.6713 10.472 63.1273 10.472ZM66.6346 13.556C66.6346 12.612 66.8866 11.864 67.3906 11.312C67.8946 10.752 68.5786 10.472 69.4426 10.472C70.3146 10.472 70.9986 10.744 71.4946 11.288C71.9906 11.832 72.2386 12.588 72.2386 13.556C72.2386 14.692 71.9946 15.84 71.5066 17H70.0186C70.2346 16.376 70.3986 15.788 70.5106 15.236C70.6226 14.676 70.6786 14.116 70.6786 13.556C70.6786 12.276 70.2666 11.636 69.4426 11.636C69.0426 11.636 68.7346 11.792 68.5186 12.104C68.3026 12.416 68.1946 12.9 68.1946 13.556C68.1946 14.116 68.2506 14.672 68.3626 15.224C68.4826 15.776 68.6506 16.368 68.8666 17H67.3786C67.1546 16.464 66.9746 15.916 66.8386 15.356C66.7026 14.796 66.6346 14.196 66.6346 13.556Z" fill="#08A508"/>
</svg>
